<svg width="52" height="52" viewBox="0 0 52 52" fill="none" xmlns="http://www.w3.org/2000/svg">
<path d="M15.8986 8.51701C18.6777 -1.80479 33.3223 -1.80479 36.1014 8.51701V8.51701C37.0707 12.1171 39.8829 14.9293 43.483 15.8986V15.8986C53.8048 18.6777 53.8048 33.3223 43.483 36.1014V36.1014C39.8829 37.0707 37.0707 39.8829 36.1014 43.483V43.483C33.3223 53.8048 18.6777 53.8048 15.8986 43.483V43.483C14.9293 39.8829 12.1171 37.0707 8.51701 36.1014V36.1014C-1.80479 33.3223 -1.80479 18.6777 8.51701 15.8986V15.8986C12.1171 14.9293 14.9293 12.1171 15.8986 8.51701V8.51701Z" fill="white"/>
</svg>
