<svg width="506" height="506" viewBox="0 0 506 506" fill="none" xmlns="http://www.w3.org/2000/svg">
<path d="M151.986 78.1701C179.777 -25.0479 326.223 -25.0479 354.014 78.1701V78.1701C363.707 114.171 391.829 142.293 427.83 151.986V151.986C531.048 179.777 531.048 326.223 427.83 354.014V354.014C391.829 363.707 363.707 391.829 354.014 427.83V427.83C326.223 531.048 179.777 531.048 151.986 427.83V427.83C142.293 391.829 114.171 363.707 78.1701 354.014V354.014C-25.0479 326.223 -25.0479 179.777 78.1701 151.986V151.986C114.171 142.293 142.293 114.171 151.986 78.1701V78.1701Z" fill="white"/>
</svg>
