<svg width="7" height="7" viewBox="0 0 7 7" fill="none" xmlns="http://www.w3.org/2000/svg">
<path d="M3.13452 0.391472C3.33218 0.179754 3.66782 0.179754 3.86548 0.391472L4.15474 0.701305C4.27226 0.82718 4.44628 0.883722 4.61534 0.850962L5.03147 0.770325C5.31582 0.715223 5.58736 0.912506 5.62283 1.19997L5.67473 1.62065C5.69581 1.79156 5.80336 1.93959 5.95939 2.01246L6.34345 2.19182C6.60588 2.31438 6.7096 2.63359 6.56932 2.887L6.36404 3.25785C6.28064 3.40851 6.28064 3.59149 6.36404 3.74215L6.56933 4.113C6.7096 4.36641 6.60588 4.68562 6.34345 4.80818L5.95939 4.98754C5.80336 5.06041 5.69581 5.20844 5.67473 5.37935L5.62283 5.80003C5.58736 6.08749 5.31582 6.28478 5.03147 6.22967L4.61534 6.14904C4.44628 6.11628 4.27226 6.17282 4.15474 6.2987L3.86548 6.60853C3.66782 6.82025 3.33218 6.82025 3.13452 6.60853L2.84526 6.29869C2.72774 6.17282 2.55372 6.11628 2.38466 6.14904L1.96853 6.22967C1.68418 6.28478 1.41264 6.08749 1.37717 5.80003L1.32527 5.37935C1.30419 5.20844 1.19664 5.06041 1.04061 4.98754L0.656553 4.80818C0.394117 4.68562 0.2904 4.36641 0.430675 4.113L0.635957 3.74215C0.719357 3.59149 0.719357 3.40851 0.635957 3.25785L0.430675 2.887C0.290399 2.63359 0.394117 2.31438 0.656554 2.19182L1.04061 2.01246C1.19664 1.93959 1.30419 1.79156 1.32527 1.62065L1.37717 1.19997C1.41264 0.912506 1.68418 0.715223 1.96853 0.770325L2.38466 0.850962C2.55372 0.883722 2.72774 0.82718 2.84526 0.701305L3.13452 0.391472Z" fill="white"/>
</svg>
