<svg width="15" height="15" viewBox="0 0 15 15" fill="none" xmlns="http://www.w3.org/2000/svg">
<path d="M6.81666 0.639569C7.20115 0.279706 7.79885 0.279705 8.18334 0.639569L9.4642 1.83839C9.64115 2.00401 9.87223 2.09972 10.1145 2.10774L11.8679 2.16575C12.3942 2.18316 12.8168 2.6058 12.8343 3.13214L12.8923 4.88553C12.9003 5.12777 12.996 5.35885 13.1616 5.5358L14.3604 6.81666C14.7203 7.20115 14.7203 7.79885 14.3604 8.18334L13.1616 9.4642C12.996 9.64115 12.9003 9.87223 12.8923 10.1145L12.8343 11.8679C12.8168 12.3942 12.3942 12.8168 11.8679 12.8343L10.1145 12.8923C9.87223 12.9003 9.64115 12.996 9.4642 13.1616L8.18334 14.3604C7.79885 14.7203 7.20115 14.7203 6.81666 14.3604L5.5358 13.1616C5.35885 12.996 5.12777 12.9003 4.88553 12.8923L3.13214 12.8343C2.6058 12.8168 2.18316 12.3942 2.16575 11.8679L2.10774 10.1145C2.09972 9.87223 2.00401 9.64115 1.83839 9.4642L0.639569 8.18334C0.279706 7.79885 0.279705 7.20115 0.639569 6.81666L1.83839 5.5358C2.00401 5.35885 2.09972 5.12777 2.10774 4.88553L2.16575 3.13214C2.18316 2.6058 2.6058 2.18316 3.13214 2.16575L4.88553 2.10774C5.12777 2.09972 5.35885 2.00401 5.5358 1.83839L6.81666 0.639569Z" fill="white"/>
</svg>
