<svg width="10" height="10" viewBox="0 0 10 10" fill="none" xmlns="http://www.w3.org/2000/svg">
<path d="M4.63452 0.391473C4.83218 0.179754 5.16782 0.179754 5.36548 0.391472L6.01629 1.08857C6.13381 1.21444 6.30783 1.27099 6.47689 1.23823L7.41315 1.0568C7.6975 1.0017 7.96904 1.19898 8.0045 1.48645L8.12128 2.43294C8.14236 2.60385 8.24991 2.75189 8.40594 2.82475L9.27003 3.2283C9.53247 3.35086 9.63618 3.67007 9.49591 3.92348L9.03404 4.75785C8.95064 4.90851 8.95064 5.09149 9.03404 5.24215L9.49591 6.07652C9.63618 6.32993 9.53247 6.64914 9.27003 6.7717L8.40594 7.17525C8.24991 7.24811 8.14236 7.39615 8.12128 7.56705L8.0045 8.51355C7.96904 8.80102 7.6975 8.9983 7.41315 8.9432L6.47689 8.76177C6.30783 8.72901 6.13381 8.78556 6.01629 8.91143L5.36548 9.60853C5.16782 9.82025 4.83218 9.82025 4.63452 9.60853L3.98371 8.91143C3.86619 8.78556 3.69217 8.72901 3.52311 8.76177L2.58685 8.9432C2.3025 8.9983 2.03096 8.80102 1.9955 8.51355L1.87872 7.56706C1.85764 7.39615 1.75009 7.24811 1.59406 7.17525L0.729969 6.7717C0.467533 6.64914 0.363815 6.32993 0.504091 6.07652L0.965957 5.24215C1.04936 5.09149 1.04936 4.90851 0.965957 4.75785L0.504091 3.92348C0.363815 3.67007 0.467533 3.35086 0.729969 3.2283L1.59406 2.82475C1.75009 2.75189 1.85764 2.60385 1.87872 2.43294L1.9955 1.48645C2.03096 1.19898 2.3025 1.0017 2.58685 1.0568L3.52311 1.23823C3.69217 1.27099 3.86619 1.21444 3.98371 1.08857L4.63452 0.391473Z" fill="white"/>
</svg>
