<svg width="446" height="466" viewBox="0 0 446 466" fill="none" xmlns="http://www.w3.org/2000/svg">
<path d="M195.224 12.7519C210.246 -3.33867 235.754 -3.33868 250.776 12.7519L268.904 32.1683C277.835 41.7348 291.06 46.0321 303.909 43.5423L329.987 38.489C351.598 34.3013 372.235 49.2947 374.93 71.1421L378.183 97.5052C379.785 110.494 387.959 121.745 399.817 127.283L423.885 138.523C443.83 147.837 451.713 172.097 441.052 191.357L428.187 214.597C421.849 226.047 421.849 239.953 428.187 251.403L441.052 274.643C451.713 293.903 443.83 318.163 423.885 327.477L399.817 338.717C387.959 344.255 379.785 355.506 378.183 368.495L374.93 394.858C372.235 416.705 351.598 431.699 329.987 427.511L303.909 422.458C291.061 419.968 277.835 424.265 268.904 433.832L250.776 453.248C235.754 469.339 210.246 469.339 195.224 453.248L177.096 433.832C168.165 424.265 154.94 419.968 142.091 422.458L116.013 427.511C94.402 431.699 73.7652 416.705 71.0698 394.858L67.8173 368.495C66.2148 355.506 58.0409 344.255 46.1827 338.717L22.115 327.477C2.16984 318.163 -5.71271 293.903 4.94823 274.643L17.8127 251.403C24.1511 239.953 24.1511 226.047 17.8127 214.597L4.94823 191.357C-5.71271 172.097 2.16982 147.837 22.115 138.523L46.1827 127.283C58.0409 121.745 66.2148 110.494 67.8173 97.5052L71.0698 71.1421C73.7652 49.2947 94.402 34.3013 116.013 38.489L142.091 43.5423C154.939 46.0321 168.165 41.7348 177.096 32.1684L195.224 12.7519Z" fill="white"/>
</svg>
