<svg width="10" height="10" viewBox="0 0 10 10" fill="none" xmlns="http://www.w3.org/2000/svg">
<path d="M4.5915 0.578788C4.7907 0.296542 5.2093 0.296543 5.4085 0.578788L5.89688 1.27075C6.02471 1.45187 6.25653 1.52719 6.4664 1.4558L7.26824 1.18305C7.5953 1.0718 7.93395 1.31784 7.92921 1.66328L7.91759 2.51015C7.91455 2.73181 8.05782 2.92901 8.26957 2.99461L9.07859 3.24526C9.40858 3.3475 9.53793 3.7456 9.33106 4.02228L8.82388 4.70059C8.69113 4.87812 8.69113 5.12188 8.82388 5.29941L9.33106 5.97772C9.53793 6.25439 9.40858 6.6525 9.07859 6.75474L8.26957 7.00539C8.05782 7.07099 7.91455 7.26819 7.91759 7.48985L7.92921 8.33672C7.93395 8.68216 7.5953 8.9282 7.26824 8.81695L6.4664 8.5442C6.25653 8.47281 6.02471 8.54813 5.89688 8.72925L5.4085 9.42121C5.2093 9.70346 4.7907 9.70346 4.5915 9.42121L4.10312 8.72925C3.97529 8.54813 3.74347 8.47281 3.5336 8.5442L2.73176 8.81695C2.4047 8.9282 2.06605 8.68216 2.07079 8.33672L2.08241 7.48985C2.08545 7.26819 1.94218 7.07099 1.73043 7.00539L0.921411 6.75474C0.591422 6.6525 0.46207 6.2544 0.668944 5.97772L1.17612 5.29941C1.30887 5.12188 1.30887 4.87812 1.17612 4.70059L0.668943 4.02228C0.46207 3.7456 0.591423 3.3475 0.921412 3.24526L1.73043 2.99461C1.94218 2.92901 2.08545 2.73181 2.08241 2.51015L2.07079 1.66328C2.06605 1.31784 2.4047 1.0718 2.73176 1.18305L3.5336 1.4558C3.74347 1.52719 3.97529 1.45187 4.10312 1.27075L4.5915 0.578788Z" fill="white"/>
</svg>
