<svg width="10" height="10" viewBox="0 0 10 10" fill="none" xmlns="http://www.w3.org/2000/svg">
<path d="M4.31666 0.639569C4.70115 0.279705 5.29885 0.279705 5.68334 0.639569L6.21796 1.13995C6.39492 1.30557 6.626 1.40129 6.86824 1.4093L7.6001 1.43352C8.12644 1.45093 8.54907 1.87356 8.56648 2.3999L8.5907 3.13176C8.59871 3.374 8.69443 3.60508 8.86005 3.78203L9.36043 4.31666C9.72029 4.70115 9.72029 5.29885 9.36043 5.68334L8.86005 6.21796C8.69443 6.39492 8.59871 6.626 8.5907 6.86824L8.56648 7.6001C8.54907 8.12644 8.12644 8.54907 7.6001 8.56648L6.86824 8.5907C6.626 8.59871 6.39492 8.69443 6.21797 8.86005L5.68334 9.36043C5.29885 9.72029 4.70115 9.72029 4.31666 9.36043L3.78204 8.86005C3.60508 8.69443 3.374 8.59871 3.13176 8.5907L2.3999 8.56648C1.87356 8.54907 1.45093 8.12644 1.43352 7.6001L1.4093 6.86824C1.40129 6.626 1.30557 6.39492 1.13995 6.21796L0.639569 5.68334C0.279705 5.29885 0.279705 4.70115 0.639569 4.31666L1.13995 3.78204C1.30557 3.60508 1.40129 3.374 1.4093 3.13176L1.43352 2.3999C1.45093 1.87356 1.87356 1.45093 2.3999 1.43352L3.13176 1.4093C3.374 1.40129 3.60508 1.30557 3.78204 1.13995L4.31666 0.639569Z" fill="white"/>
</svg>
