<svg width="15" height="15" viewBox="0 0 15 15" fill="none" xmlns="http://www.w3.org/2000/svg">
<path d="M7.13452 0.391472C7.33218 0.179754 7.66782 0.179754 7.86548 0.391472L9.11887 1.73401C9.23639 1.85988 9.41041 1.91643 9.57947 1.88367L11.3826 1.53426C11.667 1.47916 11.9385 1.67644 11.974 1.9639L12.1989 3.78676C12.2199 3.95767 12.3275 4.1057 12.4835 4.17857L14.1477 4.95575C14.4101 5.07831 14.5138 5.39752 14.3736 5.65094L13.484 7.25785C13.4006 7.40851 13.4006 7.59149 13.484 7.74215L14.3736 9.34906C14.5138 9.60247 14.4101 9.92168 14.1477 10.0442L12.4835 10.8214C12.3275 10.8943 12.2199 11.0423 12.1989 11.2132L11.974 13.0361C11.9385 13.3236 11.667 13.5208 11.3826 13.4657L9.57947 13.1163C9.41041 13.0836 9.23639 13.1401 9.11887 13.266L7.86548 14.6085C7.66782 14.8202 7.33218 14.8202 7.13452 14.6085L5.88113 13.266C5.76361 13.1401 5.58959 13.0836 5.42053 13.1163L3.61739 13.4657C3.33304 13.5208 3.0615 13.3236 3.02603 13.0361L2.80114 11.2132C2.78005 11.0423 2.6725 10.8943 2.51647 10.8214L0.852327 10.0442C0.589891 9.92168 0.486174 9.60247 0.626449 9.34906L1.51596 7.74215C1.59936 7.59149 1.59936 7.40851 1.51596 7.25785L0.626449 5.65094C0.486173 5.39752 0.589891 5.07831 0.852327 4.95575L2.51647 4.17857C2.6725 4.1057 2.78005 3.95767 2.80114 3.78676L3.02603 1.9639C3.0615 1.67644 3.33304 1.47916 3.61739 1.53426L5.42053 1.88367C5.58959 1.91643 5.76361 1.85988 5.88113 1.73401L7.13452 0.391472Z" fill="white"/>
</svg>
