<svg width="472" height="472" viewBox="0 0 472 472" fill="none" xmlns="http://www.w3.org/2000/svg">
<path d="M210.033 10.3036C224.644 -3.37118 247.356 -3.3712 261.967 10.3036L300.192 46.0806C306.916 52.3741 315.698 56.0114 324.903 56.3159L377.23 58.0472C397.231 58.709 413.291 74.769 413.953 94.7699L415.684 147.097C415.989 156.302 419.626 165.084 425.919 171.808L461.696 210.033C475.371 224.644 475.371 247.356 461.696 261.967L425.919 300.192C419.626 306.916 415.989 315.698 415.684 324.903L413.953 377.23C413.291 397.231 397.231 413.291 377.23 413.953L324.903 415.684C315.698 415.989 306.916 419.626 300.192 425.919L261.967 461.696C247.356 475.371 224.644 475.371 210.033 461.696L171.808 425.919C165.084 419.626 156.302 415.989 147.097 415.684L94.7699 413.953C74.7691 413.291 58.709 397.231 58.0472 377.23L56.3159 324.903C56.0114 315.698 52.3741 306.916 46.0806 300.192L10.3036 261.967C-3.37118 247.356 -3.3712 224.644 10.3036 210.033L46.0806 171.808C52.3741 165.084 56.0114 156.302 56.3159 147.097L58.0472 94.7699C58.709 74.7691 74.769 58.709 94.7699 58.0472L147.097 56.3159C156.302 56.0114 165.084 52.3741 171.808 46.0806L210.033 10.3036Z" fill="white"/>
</svg>
