<svg width="20" height="20" viewBox="0 0 20 20" fill="none" xmlns="http://www.w3.org/2000/svg">
<path d="M9.63452 0.391473C9.83218 0.179754 10.1678 0.179754 10.3655 0.391472L12.2215 2.37945C12.339 2.50532 12.513 2.56187 12.6821 2.52911L15.3521 2.01171C15.6364 1.95661 15.908 2.1539 15.9434 2.44136L16.2764 5.14058C16.2975 5.31149 16.4051 5.45952 16.5611 5.53239L19.0253 6.68321C19.2878 6.80577 19.3915 7.12498 19.2512 7.37839L17.934 9.75785C17.8506 9.90851 17.8506 10.0915 17.934 10.2422L19.2512 12.6216C19.3915 12.875 19.2878 13.1942 19.0253 13.3168L16.5611 14.4676C16.4051 14.5405 16.2975 14.6885 16.2764 14.8594L15.9434 17.5586C15.908 17.8461 15.6364 18.0434 15.3521 17.9883L12.6821 17.4709C12.513 17.4381 12.339 17.4947 12.2215 17.6206L10.3655 19.6085C10.1678 19.8202 9.83218 19.8202 9.63452 19.6085L7.77855 17.6206C7.66103 17.4947 7.48701 17.4381 7.31795 17.4709L4.64793 17.9883C4.36357 18.0434 4.09204 17.8461 4.05657 17.5586L3.72356 14.8594C3.70247 14.6885 3.59492 14.5405 3.43889 14.4676L0.974687 13.3168C0.712251 13.1942 0.608533 12.875 0.748808 12.6216L2.06596 10.2422C2.14936 10.0915 2.14936 9.90851 2.06596 9.75785L0.748808 7.37839C0.608533 7.12498 0.71225 6.80577 0.974687 6.68321L3.43889 5.53239C3.59492 5.45952 3.70247 5.31149 3.72356 5.14058L4.05657 2.44136C4.09204 2.1539 4.36357 1.95661 4.64793 2.01171L7.31795 2.52911C7.48701 2.56187 7.66103 2.50532 7.77854 2.37945L9.63452 0.391473Z" fill="white"/>
</svg>
