<svg width="10" height="10" viewBox="0 0 10 10" fill="none" xmlns="http://www.w3.org/2000/svg">
<path d="M4.5575 0.841147C4.74493 0.484865 5.25507 0.484865 5.4425 0.841147L5.77751 1.47796C5.90371 1.71785 6.19808 1.8135 6.44118 1.6936L7.08652 1.37532C7.44757 1.19725 7.86029 1.49711 7.8025 1.89551L7.69922 2.60762C7.66032 2.87588 7.84224 3.12628 8.10939 3.17217L8.81856 3.294C9.21533 3.36216 9.37297 3.84734 9.09204 4.13569L8.58992 4.65109C8.40077 4.84524 8.40077 5.15476 8.58992 5.34891L9.09205 5.86431C9.37297 6.15266 9.21533 6.63784 8.81856 6.706L8.10939 6.82783C7.84224 6.87372 7.66032 7.12412 7.69922 7.39238L7.80251 8.10449C7.86029 8.50289 7.44757 8.80275 7.08652 8.62468L6.44118 8.3064C6.19808 8.1865 5.90371 8.28215 5.77751 8.52204L5.4425 9.15885C5.25507 9.51513 4.74493 9.51513 4.5575 9.15885L4.22249 8.52204C4.09629 8.28215 3.80192 8.1865 3.55882 8.3064L2.91348 8.62468C2.55243 8.80275 2.13971 8.50289 2.19749 8.10449L2.30078 7.39238C2.33968 7.12412 2.15775 6.87372 1.89061 6.82783L1.18144 6.706C0.784674 6.63784 0.62703 6.15266 0.907955 5.86431L1.41008 5.34891C1.59923 5.15476 1.59923 4.84524 1.41008 4.65109L0.907955 4.13569C0.62703 3.84734 0.784674 3.36216 1.18144 3.294L1.89061 3.17217C2.15776 3.12628 2.33968 2.87588 2.30078 2.60762L2.19749 1.89551C2.13971 1.49711 2.55243 1.19725 2.91348 1.37532L3.55882 1.6936C3.80192 1.8135 4.09629 1.71785 4.22249 1.47796L4.5575 0.841147Z" fill="white"/>
</svg>
