<svg width="7" height="7" viewBox="0 0 7 7" fill="none" xmlns="http://www.w3.org/2000/svg">
<path d="M2.81666 0.639568C3.20115 0.279705 3.79885 0.279705 4.18334 0.639568L4.27023 0.720891C4.44718 0.88651 4.67826 0.982227 4.9205 0.990242L5.03944 0.994177C5.56578 1.01159 5.98841 1.43422 6.00582 1.96056L6.00976 2.0795C6.01777 2.32174 6.11349 2.55282 6.27911 2.72977L6.36043 2.81666C6.7203 3.20115 6.7203 3.79885 6.36043 4.18334L6.27911 4.27023C6.11349 4.44718 6.01777 4.67826 6.00976 4.9205L6.00582 5.03944C5.98841 5.56578 5.56578 5.98841 5.03944 6.00582L4.9205 6.00976C4.67826 6.01777 4.44718 6.11349 4.27023 6.27911L4.18334 6.36043C3.79885 6.7203 3.20115 6.7203 2.81666 6.36043L2.72977 6.27911C2.55282 6.11349 2.32174 6.01777 2.0795 6.00976L1.96056 6.00582C1.43422 5.98841 1.01159 5.56578 0.994177 5.03944L0.990242 4.9205C0.982227 4.67826 0.88651 4.44718 0.720891 4.27023L0.639568 4.18334C0.279705 3.79885 0.279705 3.20115 0.639568 2.81666L0.720891 2.72977C0.88651 2.55282 0.982227 2.32174 0.990242 2.0795L0.994177 1.96056C1.01159 1.43422 1.43422 1.01159 1.96056 0.994177L2.0795 0.990242C2.32174 0.982227 2.55282 0.88651 2.72977 0.720891L2.81666 0.639568Z" fill="white"/>
</svg>
