<svg width="46" height="46" viewBox="0 0 46 46" fill="none" xmlns="http://www.w3.org/2000/svg">
<path d="M18.2166 2.47698C20.9081 -0.0420656 25.0919 -0.0420638 27.7834 2.47698L28.5408 3.18592C29.7795 4.34526 31.3971 5.01528 33.0927 5.07138L34.1296 5.10568C37.814 5.22758 40.7724 8.18602 40.8943 11.8704L40.9286 12.9073C40.9847 14.6029 41.6547 16.2205 42.8141 17.4592L43.523 18.2166C46.0421 20.9081 46.0421 25.0919 43.523 27.7834L42.8141 28.5408C41.6547 29.7795 40.9847 31.3971 40.9286 33.0927L40.8943 34.1296C40.7724 37.814 37.814 40.7724 34.1296 40.8943L33.0927 40.9286C31.3971 40.9847 29.7795 41.6547 28.5408 42.8141L27.7834 43.523C25.0919 46.0421 20.9081 46.0421 18.2166 43.523L17.4592 42.8141C16.2205 41.6547 14.6029 40.9847 12.9073 40.9286L11.8704 40.8943C8.18601 40.7724 5.22758 37.814 5.10568 34.1296L5.07138 33.0927C5.01528 31.3971 4.34526 29.7795 3.18592 28.5408L2.47698 27.7834C-0.0420656 25.0919 -0.0420638 20.9081 2.47698 18.2166L3.18592 17.4592C4.34526 16.2205 5.01528 14.6029 5.07138 12.9073L5.10568 11.8704C5.22758 8.18601 8.18602 5.22758 11.8704 5.10568L12.9073 5.07138C14.6029 5.01528 16.2205 4.34526 17.4592 3.18592L18.2166 2.47698Z" fill="white"/>
</svg>
