<svg width="20" height="20" viewBox="0 0 20 20" fill="none" xmlns="http://www.w3.org/2000/svg">
<path d="M9.31666 0.639569C9.70115 0.279705 10.2988 0.279705 10.6833 0.639569L12.7104 2.53682C12.8874 2.70244 13.1185 2.79816 13.3607 2.80617L16.1356 2.89798C16.662 2.9154 17.0846 3.33803 17.102 3.86437L17.1938 6.6393C17.2018 6.88153 17.2976 7.11262 17.4632 7.28957L19.3604 9.31666C19.7203 9.70115 19.7203 10.2988 19.3604 10.6833L17.4632 12.7104C17.2976 12.8874 17.2018 13.1185 17.1938 13.3607L17.102 16.1356C17.0846 16.662 16.662 17.0846 16.1356 17.102L13.3607 17.1938C13.1185 17.2018 12.8874 17.2976 12.7104 17.4632L10.6833 19.3604C10.2988 19.7203 9.70115 19.7203 9.31666 19.3604L7.28957 17.4632C7.11262 17.2976 6.88153 17.2018 6.6393 17.1938L3.86437 17.102C3.33803 17.0846 2.9154 16.662 2.89798 16.1356L2.80617 13.3607C2.79816 13.1185 2.70244 12.8874 2.53682 12.7104L0.639569 10.6833C0.279705 10.2988 0.279705 9.70115 0.639569 9.31666L2.53682 7.28957C2.70244 7.11262 2.79816 6.88153 2.80617 6.6393L2.89798 3.86437C2.9154 3.33803 3.33803 2.9154 3.86437 2.89798L6.6393 2.80617C6.88153 2.79816 7.11262 2.70244 7.28957 2.53682L9.31666 0.639569Z" fill="white"/>
</svg>
