<svg width="44" height="46" viewBox="0 0 44 46" fill="none" xmlns="http://www.w3.org/2000/svg">
<path d="M18.0273 2.25529C20.1758 -0.0460804 23.8242 -0.0460808 25.9727 2.25529V2.25529C27.2501 3.62354 29.1417 4.23816 30.9794 3.88206V3.88206C34.0704 3.2831 37.0219 5.42756 37.4075 8.55229V8.55229C37.6367 10.4101 38.8057 12.0192 40.5018 12.8112V12.8112C43.3544 14.1435 44.4818 17.6133 42.957 20.3678V20.3678C42.0505 22.0055 42.0505 23.9945 42.957 25.6322V25.6322C44.4818 28.3867 43.3544 31.8565 40.5018 33.1888V33.1888C38.8057 33.9808 37.6367 35.5899 37.4075 37.4477V37.4477C37.0219 40.5724 34.0704 42.7169 30.9794 42.1179V42.1179C29.1417 41.7618 27.2501 42.3765 25.9727 43.7447V43.7447C23.8242 46.0461 20.1758 46.0461 18.0273 43.7447V43.7447C16.7499 42.3765 14.8583 41.7618 13.0206 42.1179V42.1179C9.92965 42.7169 6.97806 40.5724 6.59255 37.4477V37.4477C6.36335 35.5899 5.19428 33.9808 3.49825 33.1888V33.1888C0.645577 31.8565 -0.481828 28.3867 1.04296 25.6322V25.6322C1.94951 23.9945 1.94951 22.0055 1.04296 20.3678V20.3678C-0.481828 17.6133 0.645577 14.1435 3.49825 12.8112V12.8112C5.19427 12.0192 6.36335 10.4101 6.59255 8.55229V8.55229C6.97806 5.42756 9.92965 3.2831 13.0206 3.88206V3.88206C14.8583 4.23816 16.7499 3.62354 18.0273 2.25529V2.25529Z" fill="white"/>
</svg>
