<svg width="15" height="14" viewBox="0 0 15 14" fill="none" xmlns="http://www.w3.org/2000/svg">
<path d="M6.74179 0.881701C7.14079 0.417717 7.85921 0.417718 8.25821 0.881701L10.2994 3.25537C10.4008 3.37329 10.5283 3.46593 10.6718 3.52594L13.5601 4.73373C14.1246 4.96982 14.3467 5.65308 14.0287 6.17593L12.402 8.85074C12.3211 8.98362 12.2724 9.13352 12.2597 9.28853L12.0035 12.4087C11.9535 13.0185 11.3723 13.4408 10.7767 13.3L7.73016 12.5794C7.57881 12.5436 7.42119 12.5436 7.26984 12.5794L4.22326 13.3C3.62775 13.4408 3.04653 13.0185 2.99646 12.4087L2.74029 9.28853C2.72757 9.13352 2.67886 8.98362 2.59805 8.85074L0.971324 6.17593C0.653346 5.65308 0.875351 4.96982 1.43992 4.73373L4.32818 3.52594C4.47167 3.46593 4.59918 3.37329 4.70059 3.25537L6.74179 0.881701Z" fill="white"/>
</svg>
