<svg width="42" height="41" viewBox="0 0 42 41" fill="none" xmlns="http://www.w3.org/2000/svg">
<path d="M15.6925 3.1719C18.4855 -0.0759811 23.5145 -0.0759765 26.3075 3.17191L29.766 7.1937C30.4758 8.01916 31.3684 8.66767 32.3728 9.08769L37.2665 11.1341C41.2185 12.7867 42.7725 17.5696 40.5467 21.2295L37.7905 25.7615C37.2248 26.6917 36.8838 27.741 36.7947 28.8261L36.3607 34.1126C36.0102 38.3819 31.9417 41.3378 27.7731 40.3519L22.6111 39.131C21.5517 38.8805 20.4483 38.8805 19.3889 39.131L14.2269 40.3519C10.0583 41.3378 5.98981 38.3819 5.6393 34.1126L5.20527 28.8261C5.11619 27.741 4.77525 26.6917 4.20954 25.7615L1.45332 21.2295C-0.772521 17.5696 0.781515 12.7867 4.73352 11.1341L9.6272 9.08769C10.6316 8.66767 11.5242 8.01916 12.234 7.1937L15.6925 3.1719Z" fill="white"/>
</svg>
