<svg width="10" height="9" viewBox="0 0 10 9" fill="none" xmlns="http://www.w3.org/2000/svg">
<path d="M4.24179 0.881701C4.64079 0.417718 5.35921 0.417718 5.75821 0.881701L6.81487 2.11047C6.91628 2.22839 7.04379 2.32104 7.18728 2.38104L8.68244 3.00628C9.24701 3.24237 9.46901 3.92563 9.15103 4.44847L8.30893 5.83313C8.22812 5.96602 8.17941 6.11592 8.16669 6.27092L8.03408 7.88611C7.98401 8.49601 7.40279 8.91828 6.80727 8.77744L5.23016 8.40444C5.07881 8.36864 4.92119 8.36864 4.76984 8.40444L3.19273 8.77744C2.59721 8.91828 2.01599 8.49601 1.96592 7.88611L1.83331 6.27092C1.82059 6.11592 1.77188 5.96602 1.69107 5.83313L0.848966 4.44847C0.530988 3.92563 0.752993 3.24237 1.31756 3.00628L2.81272 2.38104C2.95621 2.32104 3.08372 2.22839 3.18513 2.11047L4.24179 0.881701Z" fill="black"/>
</svg>
