<svg width="20" height="18" viewBox="0 0 20 18" fill="none" xmlns="http://www.w3.org/2000/svg">
<path d="M9.24179 0.881702C9.64079 0.417718 10.3592 0.417718 10.7582 0.881701L13.784 4.40026C13.8854 4.51819 14.0129 4.61083 14.1564 4.67083L18.4377 6.46119C19.0023 6.69728 19.2243 7.38054 18.9063 7.90339L16.495 11.8683C16.4142 12.0012 16.3655 12.1511 16.3527 12.3061L15.973 16.9312C15.9229 17.5411 15.3417 17.9634 14.7462 17.8225L10.2302 16.7544C10.0788 16.7186 9.92119 16.7186 9.76984 16.7544L5.2538 17.8225C4.65828 17.9634 4.07707 17.5411 4.02699 16.9312L3.64727 12.3061C3.63455 12.1511 3.58584 12.0012 3.50503 11.8683L1.09368 7.90339C0.775706 7.38054 0.997711 6.69728 1.56228 6.46119L5.84364 4.67083C5.98713 4.61083 6.11464 4.51819 6.21605 4.40026L9.24179 0.881702Z" fill="white"/>
</svg>
