<svg width="442" height="424" viewBox="0 0 442 424" fill="none" xmlns="http://www.w3.org/2000/svg">
<path d="M192.188 13.5046C207.35 -4.12676 234.65 -4.12674 249.812 13.5046L313.594 87.6754C317.448 92.1564 322.293 95.6769 327.746 97.957L417.996 135.698C439.45 144.669 447.886 170.633 435.803 190.501L384.972 274.082C381.901 279.131 380.05 284.827 379.567 290.718L371.562 388.213C369.659 411.389 347.573 427.436 324.943 422.084L229.746 399.569C223.995 398.208 218.005 398.208 212.254 399.569L117.057 422.084C94.4268 427.436 72.3406 411.389 70.4379 388.213L62.4334 290.718C61.9498 284.827 60.099 279.131 57.0281 274.082L6.19729 190.501C-5.88587 170.633 2.55033 144.669 24.004 135.697L114.254 97.957C119.707 95.6769 124.552 92.1564 128.406 87.6754L192.188 13.5046Z" fill="white"/>
</svg>
