<svg width="7" height="7" viewBox="0 0 7 7" fill="none" xmlns="http://www.w3.org/2000/svg">
<path d="M2.74179 0.881702C3.14079 0.417718 3.85921 0.417717 4.25821 0.881701L4.72415 1.42353C4.82556 1.54145 4.95307 1.6341 5.09656 1.6941L5.75585 1.9698C6.32042 2.20589 6.54243 2.88915 6.22445 3.412L5.85312 4.02257C5.77231 4.15545 5.7236 4.30536 5.71087 4.46036L5.6524 5.17258C5.60233 5.78248 5.02111 6.20476 4.42559 6.06391L3.73016 5.89943C3.57881 5.86364 3.42119 5.86364 3.26984 5.89943L2.57441 6.06391C1.97889 6.20476 1.39767 5.78248 1.3476 5.17258L1.28913 4.46036C1.2764 4.30536 1.22769 4.15545 1.14688 4.02257L0.775551 3.412C0.457573 2.88915 0.679577 2.20589 1.24415 1.9698L1.90344 1.6941C2.04693 1.6341 2.17444 1.54145 2.27585 1.42353L2.74179 0.881702Z" fill="white"/>
</svg>
